<?xml version="1.0" encoding="UTF-8"?>
<svg width="65px" height="65px" viewBox="0 0 65 65" version="1.1" xmlns="http://www.w3.org/2000/svg" xmlns:xlink="http://www.w3.org/1999/xlink">
    <!-- Generator: Sketch 52.3 (67297) - http://www.bohemiancoding.com/sketch -->
    <title>Group</title>
    <desc>Created with Sketch.</desc>
    <g id="Page-1" stroke="none" stroke-width="1" fill="none" fill-rule="evenodd">
        <g id="Artboard" transform="translate(-261.000000, -128.000000)">
            <g id="Group" transform="translate(261.000000, 128.000000)">
                <circle id="Oval" fill="#3197FF" fill-rule="nonzero" cx="32.5" cy="32.5" r="32.5"></circle>
                <g id="plus" transform="translate(7.000000, 7.000000)" fill="#FFFFFF">
                    <path d="M47.1634891,20.426087 L31.0920605,20.426087 L31.0920605,4.35465847 C31.0920605,2.38256026 29.4927302,0.783229898 27.520632,0.783229898 L23.9492034,0.783229898 C21.9771052,0.783229898 20.3777748,2.38256026 20.3777748,4.35465847 L20.3777748,20.426087 L4.30634626,20.426087 C2.33424804,20.426087 0.734917686,22.0254174 0.734917686,23.9975156 L0.734917686,27.5689442 C0.734917686,29.5410424 2.33424804,31.1403728 4.30634626,31.1403728 L20.3777748,31.1403728 L20.3777748,47.2118013 C20.3777748,49.1838995 21.9771052,50.7832299 23.9492034,50.7832299 L27.520632,50.7832299 C29.4927302,50.7832299 31.0920605,49.1838995 31.0920605,47.2118013 L31.0920605,31.1403728 L47.1634891,31.1403728 C49.1355873,31.1403728 50.7349177,29.5410424 50.7349177,27.5689442 L50.7349177,23.9975156 C50.7349177,22.0254174 49.1355873,20.426087 47.1634891,20.426087 Z" id="Path"></path>
                </g>
            </g>
        </g>
    </g>
</svg>